<?xml version="1.0" encoding="UTF-8"?>
<!DOCTYPE svg PUBLIC "-//W3C//DTD SVG 1.1//EN" "http://www.w3.org/Graphics/SVG/1.1/DTD/svg11.dtd">
<svg xmlns="http://www.w3.org/2000/svg" xmlns:xlink="http://www.w3.org/1999/xlink" version="1.1" width="381px" height="381px" viewBox="-0.5 -0.5 381 381"><defs/><g><rect x="0" y="25" width="25" height="25" fill="#5bafeb" stroke="rgb(0, 0, 0)" pointer-events="none"/><rect x="25" y="25" width="25" height="25" fill="#5bafeb" stroke="rgb(0, 0, 0)" pointer-events="none"/><rect x="50" y="25" width="25" height="25" fill="#5bafeb" stroke="rgb(0, 0, 0)" pointer-events="none"/><rect x="75" y="25" width="25" height="25" fill="#5bafeb" stroke="rgb(0, 0, 0)" pointer-events="none"/><rect x="0" y="0" width="25" height="25" fill="#5bafeb" stroke="rgb(0, 0, 0)" pointer-events="none"/><rect x="25" y="0" width="25" height="25" fill="#5bafeb" stroke="rgb(0, 0, 0)" pointer-events="none"/><rect x="50" y="0" width="25" height="25" fill="#5bafeb" stroke="rgb(0, 0, 0)" pointer-events="none"/><rect x="75" y="0" width="25" height="25" fill="#5bafeb" stroke="rgb(0, 0, 0)" pointer-events="none"/><rect x="0" y="50" width="25" height="25" fill="#5bafeb" stroke="rgb(0, 0, 0)" pointer-events="none"/><rect x="25" y="50" width="25" height="25" fill="#5bafeb" stroke="rgb(0, 0, 0)" pointer-events="none"/><rect x="50" y="50" width="25" height="25" fill="#5bafeb" stroke="rgb(0, 0, 0)" pointer-events="none"/><rect x="75" y="50" width="25" height="25" fill="#5bafeb" stroke="rgb(0, 0, 0)" pointer-events="none"/><rect x="0" y="75" width="25" height="25" fill="#5bafeb" stroke="rgb(0, 0, 0)" pointer-events="none"/><rect x="25" y="75" width="25" height="25" fill="#5bafeb" stroke="rgb(0, 0, 0)" pointer-events="none"/><rect x="50" y="75" width="25" height="25" fill="#5bafeb" stroke="rgb(0, 0, 0)" pointer-events="none"/><rect x="75" y="75" width="25" height="25" fill="#5bafeb" stroke="rgb(0, 0, 0)" pointer-events="none"/><rect x="280" y="25" width="25" height="25" fill="#eb716e" stroke="rgb(0, 0, 0)" pointer-events="none"/><rect x="305" y="25" width="25" height="25" fill="#eb716e" stroke="rgb(0, 0, 0)" pointer-events="none"/><rect x="330" y="25" width="25" height="25" fill="#eb716e" stroke="rgb(0, 0, 0)" pointer-events="none"/><rect x="355" y="25" width="25" height="25" fill="#eb716e" stroke="rgb(0, 0, 0)" pointer-events="none"/><rect x="280" y="50" width="25" height="25" fill="#eb716e" stroke="rgb(0, 0, 0)" pointer-events="none"/><rect x="305" y="50" width="25" height="25" fill="#eb716e" stroke="rgb(0, 0, 0)" pointer-events="none"/><rect x="330" y="50" width="25" height="25" fill="#eb716e" stroke="rgb(0, 0, 0)" pointer-events="none"/><rect x="355" y="50" width="25" height="25" fill="#eb716e" stroke="rgb(0, 0, 0)" pointer-events="none"/><rect x="280" y="75" width="25" height="25" fill="#eb716e" stroke="rgb(0, 0, 0)" pointer-events="none"/><rect x="305" y="75" width="25" height="25" fill="#eb716e" stroke="rgb(0, 0, 0)" pointer-events="none"/><rect x="330" y="75" width="25" height="25" fill="#eb716e" stroke="rgb(0, 0, 0)" pointer-events="none"/><rect x="280" y="0" width="25" height="25" fill="#eb716e" stroke="rgb(0, 0, 0)" pointer-events="none"/><rect x="305" y="0" width="25" height="25" fill="#eb716e" stroke="rgb(0, 0, 0)" pointer-events="none"/><rect x="330" y="0" width="25" height="25" fill="#eb716e" stroke="rgb(0, 0, 0)" pointer-events="none"/><rect x="355" y="0" width="25" height="25" fill="#eb716e" stroke="rgb(0, 0, 0)" pointer-events="none"/><rect x="355" y="75" width="25" height="25" fill="#eb716e" stroke="rgb(0, 0, 0)" pointer-events="none"/><rect x="280" y="165" width="25" height="25" fill="#eb716e" stroke="rgb(0, 0, 0)" pointer-events="none"/><rect x="305" y="165" width="25" height="25" fill="#eb716e" stroke="rgb(0, 0, 0)" pointer-events="none"/><rect x="330" y="165" width="25" height="25" fill="#eb716e" stroke="rgb(0, 0, 0)" pointer-events="none"/><rect x="355" y="165" width="25" height="25" fill="#eb716e" stroke="rgb(0, 0, 0)" pointer-events="none"/><rect x="280" y="190" width="25" height="25" fill="#eb716e" stroke="rgb(0, 0, 0)" pointer-events="none"/><rect x="305" y="190" width="25" height="25" fill="#eb716e" stroke="rgb(0, 0, 0)" pointer-events="none"/><rect x="330" y="190" width="25" height="25" fill="#eb716e" stroke="rgb(0, 0, 0)" pointer-events="none"/><rect x="355" y="190" width="25" height="25" fill="#eb716e" stroke="rgb(0, 0, 0)" pointer-events="none"/><rect x="280" y="215" width="25" height="25" fill="#eb716e" stroke="rgb(0, 0, 0)" pointer-events="none"/><rect x="305" y="215" width="25" height="25" fill="#eb716e" stroke="rgb(0, 0, 0)" pointer-events="none"/><rect x="330" y="215" width="25" height="25" fill="#eb716e" stroke="rgb(0, 0, 0)" pointer-events="none"/><rect x="280" y="140" width="25" height="25" fill="#eb716e" stroke="rgb(0, 0, 0)" pointer-events="none"/><rect x="305" y="140" width="25" height="25" fill="#eb716e" stroke="rgb(0, 0, 0)" pointer-events="none"/><rect x="330" y="140" width="25" height="25" fill="#eb716e" stroke="rgb(0, 0, 0)" pointer-events="none"/><rect x="355" y="140" width="25" height="25" fill="#eb716e" stroke="rgb(0, 0, 0)" pointer-events="none"/><rect x="355" y="215" width="25" height="25" fill="#eb716e" stroke="rgb(0, 0, 0)" pointer-events="none"/><rect x="280" y="305" width="25" height="25" fill="#eb716e" stroke="rgb(0, 0, 0)" pointer-events="none"/><rect x="305" y="305" width="25" height="25" fill="#eb716e" stroke="rgb(0, 0, 0)" pointer-events="none"/><rect x="330" y="305" width="25" height="25" fill="#eb716e" stroke="rgb(0, 0, 0)" pointer-events="none"/><rect x="355" y="305" width="25" height="25" fill="#eb716e" stroke="rgb(0, 0, 0)" pointer-events="none"/><rect x="280" y="330" width="25" height="25" fill="#eb716e" stroke="rgb(0, 0, 0)" pointer-events="none"/><rect x="305" y="330" width="25" height="25" fill="#eb716e" stroke="rgb(0, 0, 0)" pointer-events="none"/><rect x="330" y="330" width="25" height="25" fill="#eb716e" stroke="rgb(0, 0, 0)" pointer-events="none"/><rect x="355" y="330" width="25" height="25" fill="#eb716e" stroke="rgb(0, 0, 0)" pointer-events="none"/><rect x="280" y="355" width="25" height="25" fill="#eb716e" stroke="rgb(0, 0, 0)" pointer-events="none"/><rect x="305" y="355" width="25" height="25" fill="#eb716e" stroke="rgb(0, 0, 0)" pointer-events="none"/><rect x="330" y="355" width="25" height="25" fill="#eb716e" stroke="rgb(0, 0, 0)" pointer-events="none"/><rect x="280" y="280" width="25" height="25" fill="#eb716e" stroke="rgb(0, 0, 0)" pointer-events="none"/><rect x="305" y="280" width="25" height="25" fill="#eb716e" stroke="rgb(0, 0, 0)" pointer-events="none"/><rect x="330" y="280" width="25" height="25" fill="#eb716e" stroke="rgb(0, 0, 0)" pointer-events="none"/><rect x="355" y="280" width="25" height="25" fill="#eb716e" stroke="rgb(0, 0, 0)" pointer-events="none"/><rect x="355" y="355" width="25" height="25" fill="#eb716e" stroke="rgb(0, 0, 0)" pointer-events="none"/><path d="M 100 50 L 273.63 50" fill="none" stroke="#000000" stroke-miterlimit="10" pointer-events="none"/><path d="M 278.88 50 L 271.88 53.5 L 273.63 50 L 271.88 46.5 Z" fill="#000000" stroke="#000000" stroke-miterlimit="10" pointer-events="none"/><path d="M 100 50 L 274.97 186.09" fill="none" stroke="#000000" stroke-miterlimit="10" pointer-events="none"/><path d="M 279.12 189.31 L 271.44 187.78 L 274.97 186.09 L 275.74 182.25 Z" fill="#000000" stroke="#000000" stroke-miterlimit="10" pointer-events="none"/><path d="M 100 50 L 276.56 324.64" fill="none" stroke="#000000" stroke-miterlimit="10" pointer-events="none"/><path d="M 279.4 329.06 L 272.67 325.06 L 276.56 324.64 L 278.55 321.28 Z" fill="#000000" stroke="#000000" stroke-miterlimit="10" pointer-events="none"/></g></svg>